<svg xmlns="http://www.w3.org/2000/svg" viewBox="0 0 500 500" width="100%" height="100%">
  <rect width="100%" height="100%" fill="#ffffff"/>

  <g stroke="#000000" stroke-width="2.5" stroke-linejoin="round" stroke-linecap="round" fill="none">

    <polygon points="180,320 170,310 180,300 190,310" fill="#000000"/> <polygon points="180,300 170,310 160,270"/>
    <polygon points="180,300 190,310 200,270"/>
    <polygon points="180,300 160,270 180,260"/>
    <polygon points="180,300 200,270 180,260"/>

    <polygon points="140,260 160,260 140,240" fill="#000000"/> <polygon points="140,240 120,260 140,260"/>
    <polygon points="120,260 140,280 140,260"/>
    <polygon points="140,280 160,260 140,260"/>
    <polygon points="160,260 180,260 160,270"/> <polygon points="160,260 160,270 140,280"/>

    <polygon points="220,260 200,260 220,240" fill="#000000"/> <polygon points="220,240 240,260 220,260"/>
    <polygon points="240,260 220,280 220,260"/>
    <polygon points="220,280 200,260 220,260"/>
    <polygon points="200,260 180,260 200,270"/> <polygon points="200,260 200,270 220,280"/>

    <polygon points="180,260 140,240 180,180"/>
    <polygon points="180,260 220,240 180,180"/>
    <polygon points="140,280 160,270 170,310"/> <polygon points="140,280 170,310 120,300"/>
    <polygon points="220,280 200,270 190,310"/> <polygon points="220,280 190,310 240,300"/>

    <polygon points="170,310 180,320 120,300"/>
    <polygon points="190,310 180,320 240,300"/>


    <polygon points="120,180 80,100 160,140"/> <polygon points="120,180 60,200 80,100"/> <polygon points="240,180 280,100 200,140"/> <polygon points="240,180 300,200 280,100"/> <polygon points="180,180 240,180 260,220"/>
    <polygon points="180,180 120,180 100,220"/>
    <polygon points="100,220 120,300 180,320"/> <polygon points="260,220 320,200 380,250"/>
    <polygon points="380,250 420,300 360,350"/>
    <polygon points="360,350 300,380 240,350"/>
    <polygon points="240,350 180,320 260,220"/>

    <polygon points="420,300 440,350 380,380"/>
    <polygon points="380,380 320,400 260,380"/>
    <polygon points="260,380 240,350 300,380"/>

    <polygon points="240,350 200,380 260,380"/> <polygon points="360,350 320,400 380,380"/> <polygon points="280,240 290,250 270,260" fill="#000000"/>
    <polygon points="320,240 330,250 310,260" fill="#000000"/>
    <polygon points="360,260 370,270 350,280" fill="#000000"/>
    <polygon points="390,280 400,290 380,300" fill="#000000"/>
    <polygon points="340,320 350,330 330,340" fill="#000000"/>
    <polygon points="310,290 320,300 300,310" fill="#000000"/>
    <polygon points="270,300 280,310 260,320" fill="#000000"/>
    <polygon points="420,330 430,340 410,350" fill="#000000"/>


  </g>
</svg>
