<svg xmlns="http://www.w3.org/2000/svg" width="1340" height="974" viewBox="0 0 1340 974" role="img" aria-labelledby="chart-title chart-desc">
  <title id="chart-title">Published package compare lanes</title>
  <desc id="chart-desc">Package compare claims</desc>
  <defs><style>
  text { fill: #111111; font-family: Inter, 'Segoe UI', 'Helvetica Neue', Arial, sans-serif; letter-spacing: 0; }
  .ev-title { font-size: 30px; font-weight: 700; }
  .ev-subtitle { font-size: 14px; fill: #5a5a5a; font-weight: 500; }
  .ev-node-title { font-size: 20px; font-weight: 700; }
  .ev-label { font-size: 12px; fill: #5a5a5a; font-weight: 600; }
  .ev-mono { font-family: SFMono-Regular, Menlo, Consolas, 'Liberation Mono', monospace; }
</style></defs>
  <rect x="0" y="0" width="1340" height="974" fill="#ffffff" />
  <rect x="14" y="14" width="1312" height="946" rx="4" fill="#ffffff" stroke="#111111" stroke-width="1.25" />
  <text x="36" y="70" class="ev-title">Published package compare lanes</text>
<text x="36" y="102" class="ev-subtitle">Current public package compare lanes, shown as artifact-backed Doe versus Dawn timings.</text>
<rect x="998" y="34" width="296" height="38" rx="3" fill="#f7f7f7" stroke="#111111" stroke-width="1.25" />
<text x="1146" y="58" text-anchor="middle" class="ev-label ev-mono" style="fill:#111111">BARS IN MS; LOWER IS BETTER</text>
<text x="322" y="148" class="ev-label">Each lane scales its own bars; exact ms and sample counts are printed on the row.</text>
<rect x="24" y="156" width="1292" height="176" rx="4" fill="#f7f7f7" stroke="#111111" stroke-width="1.25" />
<text x="48" y="194" class="ev-node-title">Node package</text>
<rect x="48" y="208" width="176" height="30" rx="3" fill="#111111" fill-opacity="0.14" stroke="#111111" stroke-width="1.25" />
<text x="64" y="228" class="ev-label" style="fill:#111111">AMD Vulkan</text>
<text x="322" y="174" class="ev-label ev-mono">p50 ms</text>
<circle cx="330" cy="188" r="4" fill="#111111" />
<text x="342" y="192" font-size="11" font-weight="700">Doe</text>
<rect x="412" y="182" width="520" height="12" rx="3" fill="#ffffff" stroke="#111111" stroke-width="1.25" />
<rect x="413" y="183" width="193.9059935938755" height="10" rx="3" fill="#111111" />
<text x="944" y="192" class="ev-mono" font-size="11">64.5 ms</text>
<circle cx="330" cy="206" r="4" fill="#9bb7d6" />
<text x="342" y="210" font-size="11" font-weight="700">Dawn</text>
<rect x="412" y="200" width="520" height="12" rx="3" fill="#ffffff" stroke="#111111" stroke-width="1.25" />
<rect x="413" y="201" width="486.7490470424179" height="10" rx="3" fill="#9bb7d6" />
<text x="944" y="210" class="ev-mono" font-size="11">161.0 ms</text>
<text x="322" y="226" class="ev-label ev-mono">p95 ms</text>
<circle cx="330" cy="240" r="4" fill="#111111" />
<text x="342" y="244" font-size="11" font-weight="700">Doe</text>
<rect x="412" y="234" width="520" height="12" rx="3" fill="#ffffff" stroke="#111111" stroke-width="1.25" />
<rect x="413" y="235" width="214.68433601100477" height="10" rx="3" fill="#111111" />
<text x="944" y="244" class="ev-mono" font-size="11">71.4 ms</text>
<circle cx="330" cy="258" r="4" fill="#9bb7d6" />
<text x="342" y="262" font-size="11" font-weight="700">Dawn</text>
<rect x="412" y="252" width="520" height="12" rx="3" fill="#ffffff" stroke="#111111" stroke-width="1.25" />
<rect x="413" y="253" width="497.99999999999994" height="10" rx="3" fill="#9bb7d6" />
<text x="944" y="262" class="ev-mono" font-size="11">164.7 ms</text>
<text x="322" y="308" class="ev-label">Doe n=15</text>
<text x="470" y="308" class="ev-label">Dawn n=15</text>
<rect x="1134" y="178" width="160" height="40" rx="3" fill="#b8a8d8" fill-opacity="0.14" stroke="#b8a8d8" stroke-width="1.25" />
<text x="1214" y="204" text-anchor="middle" font-size="18" font-weight="700" style="fill:#b8a8d8">+59.9%</text>
<rect x="1134" y="228" width="160" height="34" rx="3" fill="#ffffff" stroke="#111111" stroke-width="1.25" />
<text x="1214" y="249" text-anchor="middle" class="ev-label">p95 +56.7%</text>
<rect x="1134" y="272" width="160" height="28" rx="3" fill="#ffffff" stroke="#111111" stroke-width="1.25" />
<text x="1214" y="290" text-anchor="middle" class="ev-label ev-mono">artifact-backed</text>
<rect x="24" y="350" width="1292" height="176" rx="4" fill="#f7f7f7" stroke="#111111" stroke-width="1.25" />
<text x="48" y="388" class="ev-node-title">Bun package</text>
<rect x="48" y="402" width="176" height="30" rx="3" fill="#111111" fill-opacity="0.14" stroke="#111111" stroke-width="1.25" />
<text x="64" y="422" class="ev-label" style="fill:#111111">AMD Vulkan</text>
<text x="322" y="368" class="ev-label ev-mono">p50 ms</text>
<circle cx="330" cy="382" r="4" fill="#111111" />
<text x="342" y="386" font-size="11" font-weight="700">Doe</text>
<rect x="412" y="376" width="520" height="12" rx="3" fill="#ffffff" stroke="#111111" stroke-width="1.25" />
<rect x="413" y="377" width="155.65330108329186" height="10" rx="3" fill="#111111" />
<text x="944" y="386" class="ev-mono" font-size="11">57.0 ms</text>
<circle cx="330" cy="400" r="4" fill="#9bb7d6" />
<text x="342" y="404" font-size="11" font-weight="700">Dawn</text>
<rect x="412" y="394" width="520" height="12" rx="3" fill="#ffffff" stroke="#111111" stroke-width="1.25" />
<rect x="413" y="395" width="464.8505100846685" height="10" rx="3" fill="#9bb7d6" />
<text x="944" y="404" class="ev-mono" font-size="11">168.9 ms</text>
<text x="322" y="420" class="ev-label ev-mono">p95 ms</text>
<circle cx="330" cy="434" r="4" fill="#111111" />
<text x="342" y="438" font-size="11" font-weight="700">Doe</text>
<rect x="412" y="428" width="520" height="12" rx="3" fill="#ffffff" stroke="#111111" stroke-width="1.25" />
<rect x="413" y="429" width="194.79308844832215" height="10" rx="3" fill="#111111" />
<text x="944" y="438" class="ev-mono" font-size="11">71.2 ms</text>
<circle cx="330" cy="452" r="4" fill="#9bb7d6" />
<text x="342" y="456" font-size="11" font-weight="700">Dawn</text>
<rect x="412" y="446" width="520" height="12" rx="3" fill="#ffffff" stroke="#111111" stroke-width="1.25" />
<rect x="413" y="447" width="497.99999999999994" height="10" rx="3" fill="#9bb7d6" />
<text x="944" y="456" class="ev-mono" font-size="11">180.8 ms</text>
<text x="322" y="502" class="ev-label">Doe n=15</text>
<text x="470" y="502" class="ev-label">Dawn n=15</text>
<rect x="1134" y="372" width="160" height="40" rx="3" fill="#b8a8d8" fill-opacity="0.14" stroke="#b8a8d8" stroke-width="1.25" />
<text x="1214" y="398" text-anchor="middle" font-size="18" font-weight="700" style="fill:#b8a8d8">+66.2%</text>
<rect x="1134" y="422" width="160" height="34" rx="3" fill="#ffffff" stroke="#111111" stroke-width="1.25" />
<text x="1214" y="443" text-anchor="middle" class="ev-label">p95 +60.6%</text>
<rect x="1134" y="466" width="160" height="28" rx="3" fill="#ffffff" stroke="#111111" stroke-width="1.25" />
<text x="1214" y="484" text-anchor="middle" class="ev-label ev-mono">artifact-backed</text>
<rect x="24" y="544" width="1292" height="176" rx="4" fill="#f7f7f7" stroke="#111111" stroke-width="1.25" />
<text x="48" y="582" class="ev-node-title">Node package</text>
<rect x="48" y="596" width="176" height="30" rx="3" fill="#111111" fill-opacity="0.14" stroke="#111111" stroke-width="1.25" />
<text x="64" y="616" class="ev-label" style="fill:#111111">Apple Metal</text>
<text x="322" y="562" class="ev-label ev-mono">p50 ms</text>
<circle cx="330" cy="576" r="4" fill="#111111" />
<text x="342" y="580" font-size="11" font-weight="700">Doe</text>
<rect x="412" y="570" width="520" height="12" rx="3" fill="#ffffff" stroke="#111111" stroke-width="1.25" />
<rect x="413" y="571" width="354.8254793712426" height="10" rx="3" fill="#111111" />
<text x="944" y="580" class="ev-mono" font-size="11">43.6 ms</text>
<circle cx="330" cy="594" r="4" fill="#9bb7d6" />
<text x="342" y="598" font-size="11" font-weight="700">Dawn</text>
<rect x="412" y="588" width="520" height="12" rx="3" fill="#ffffff" stroke="#111111" stroke-width="1.25" />
<rect x="413" y="589" width="448.4662607108588" height="10" rx="3" fill="#9bb7d6" />
<text x="944" y="598" class="ev-mono" font-size="11">55.1 ms</text>
<text x="322" y="614" class="ev-label ev-mono">p95 ms</text>
<circle cx="330" cy="628" r="4" fill="#111111" />
<text x="342" y="632" font-size="11" font-weight="700">Doe</text>
<rect x="412" y="622" width="520" height="12" rx="3" fill="#ffffff" stroke="#111111" stroke-width="1.25" />
<rect x="413" y="623" width="433.10803519676165" height="10" rx="3" fill="#111111" />
<text x="944" y="632" class="ev-mono" font-size="11">53.2 ms</text>
<circle cx="330" cy="646" r="4" fill="#9bb7d6" />
<text x="342" y="650" font-size="11" font-weight="700">Dawn</text>
<rect x="412" y="640" width="520" height="12" rx="3" fill="#ffffff" stroke="#111111" stroke-width="1.25" />
<rect x="413" y="641" width="498" height="10" rx="3" fill="#9bb7d6" />
<text x="944" y="650" class="ev-mono" font-size="11">61.2 ms</text>
<text x="322" y="696" class="ev-label">Doe n=15</text>
<text x="470" y="696" class="ev-label">Dawn n=15</text>
<rect x="1134" y="566" width="160" height="40" rx="3" fill="#b8a8d8" fill-opacity="0.14" stroke="#b8a8d8" stroke-width="1.25" />
<text x="1214" y="592" text-anchor="middle" font-size="18" font-weight="700" style="fill:#b8a8d8">+20.8%</text>
<rect x="1134" y="616" width="160" height="34" rx="3" fill="#ffffff" stroke="#111111" stroke-width="1.25" />
<text x="1214" y="637" text-anchor="middle" class="ev-label">p95 +13.0%</text>
<rect x="1134" y="660" width="160" height="28" rx="3" fill="#ffffff" stroke="#111111" stroke-width="1.25" />
<text x="1214" y="678" text-anchor="middle" class="ev-label ev-mono">artifact-backed</text>
<rect x="24" y="738" width="1292" height="176" rx="4" fill="#f7f7f7" stroke="#111111" stroke-width="1.25" />
<text x="48" y="776" class="ev-node-title">Bun package</text>
<rect x="48" y="790" width="176" height="30" rx="3" fill="#111111" fill-opacity="0.14" stroke="#111111" stroke-width="1.25" />
<text x="64" y="810" class="ev-label" style="fill:#111111">Apple Metal</text>
<text x="322" y="756" class="ev-label ev-mono">p50 ms</text>
<circle cx="330" cy="770" r="4" fill="#111111" />
<text x="342" y="774" font-size="11" font-weight="700">Doe</text>
<rect x="412" y="764" width="520" height="12" rx="3" fill="#ffffff" stroke="#111111" stroke-width="1.25" />
<rect x="413" y="765" width="379.003651385786" height="10" rx="3" fill="#111111" />
<text x="944" y="774" class="ev-mono" font-size="11">48.1 ms</text>
<circle cx="330" cy="788" r="4" fill="#9bb7d6" />
<text x="342" y="792" font-size="11" font-weight="700">Dawn</text>
<rect x="412" y="782" width="520" height="12" rx="3" fill="#ffffff" stroke="#111111" stroke-width="1.25" />
<rect x="413" y="783" width="441.40264884513005" height="10" rx="3" fill="#9bb7d6" />
<text x="944" y="792" class="ev-mono" font-size="11">56.0 ms</text>
<text x="322" y="808" class="ev-label ev-mono">p95 ms</text>
<circle cx="330" cy="822" r="4" fill="#111111" />
<text x="342" y="826" font-size="11" font-weight="700">Doe</text>
<rect x="412" y="816" width="520" height="12" rx="3" fill="#ffffff" stroke="#111111" stroke-width="1.25" />
<rect x="413" y="817" width="412.6868355773588" height="10" rx="3" fill="#111111" />
<text x="944" y="826" class="ev-mono" font-size="11">52.3 ms</text>
<circle cx="330" cy="840" r="4" fill="#9bb7d6" />
<text x="342" y="844" font-size="11" font-weight="700">Dawn</text>
<rect x="412" y="834" width="520" height="12" rx="3" fill="#ffffff" stroke="#111111" stroke-width="1.25" />
<rect x="413" y="835" width="497.99999999999994" height="10" rx="3" fill="#9bb7d6" />
<text x="944" y="844" class="ev-mono" font-size="11">63.1 ms</text>
<text x="322" y="890" class="ev-label">Doe n=15</text>
<text x="470" y="890" class="ev-label">Dawn n=15</text>
<rect x="1134" y="760" width="160" height="40" rx="3" fill="#b8a8d8" fill-opacity="0.14" stroke="#b8a8d8" stroke-width="1.25" />
<text x="1214" y="786" text-anchor="middle" font-size="18" font-weight="700" style="fill:#b8a8d8">+14.1%</text>
<rect x="1134" y="810" width="160" height="34" rx="3" fill="#ffffff" stroke="#111111" stroke-width="1.25" />
<text x="1214" y="831" text-anchor="middle" class="ev-label">p95 +17.1%</text>
<rect x="1134" y="854" width="160" height="28" rx="3" fill="#ffffff" stroke="#111111" stroke-width="1.25" />
<text x="1214" y="872" text-anchor="middle" class="ev-label ev-mono">artifact-backed</text>
<rect x="36" y="934" width="18" height="18" rx="3" fill="#111111" />
<text x="64" y="947" font-size="13">Doe timing bars</text>
<rect x="250" y="934" width="18" height="18" rx="3" fill="#9bb7d6" />
<text x="278" y="947" font-size="13">comparison timing bars</text>
<rect x="540" y="934" width="18" height="18" rx="3" fill="#b8a8d8" />
<text x="568" y="947" font-size="13">summary pill = p50 and p95 faster summary</text>
</svg>
